<svg width="227" height="320" viewBox="0 0 227 320" fill="none" xmlns="http://www.w3.org/2000/svg">
<path fill-rule="evenodd" clip-rule="evenodd" d="M104.346 12.2546C85.9834 40.4587 73.8217 61.7575 59.4436 90.8916C34.4499 141.537 18.0878 188.789 7.78618 240.078C4.27544 257.557 -0.408438 289.756 0.0284664 293.41C0.337496 295.995 0.481837 295.924 10.0298 288.444C15.3579 284.27 23.507 278.317 28.1386 275.215C36.402 269.681 36.5696 269.491 37.1411 264.999C38.3598 255.409 39.9146 247.28 43.6647 230.89C52.3359 192.988 65.1146 156.429 83.5663 116.739C92.8363 96.798 111.788 61.3342 113.165 61.3516C114.512 61.3681 133.326 96.5481 142.952 117.048C164.095 162.072 183.599 222.787 187.813 256.692C189.202 267.874 190.536 270.432 196.986 274.29C199.905 276.036 207.577 281.613 214.035 286.684C220.493 291.754 226.011 295.669 226.297 295.383C227.854 293.825 220.912 249.499 215.283 225.063C211.812 209.996 202.696 177.258 200.011 170.217C199.221 168.147 196.62 161.005 194.229 154.344C180.016 114.747 159.206 72.2461 133.754 30.8293C125.687 17.7028 114.441 0.595756 113.494 0.0106332C113.033 -0.275147 108.916 5.23508 104.346 12.2546ZM108.589 135.696C100.674 152.498 98.3756 157.92 94.3146 169.36C90.0812 181.287 86.7458 194.067 87.8676 194.058C88.2144 194.056 93.5115 191.197 99.6388 187.703C105.766 184.211 111.478 181.291 112.331 181.216C114.275 181.044 126.696 187.446 132.82 191.777C137.457 195.054 140.326 195.906 140.326 194.003C140.326 192.012 131.354 165.548 128.056 157.812C122.9 145.718 113.93 127.22 113.22 127.22C112.869 127.22 110.785 131.034 108.589 135.696ZM109.312 200.726C105.621 202.716 81.8245 217.396 78.9832 219.436C76.6989 221.077 74.3749 231.895 74.1433 241.963L73.967 249.659L77.7296 250.566C85.0136 252.321 97.338 267.052 102.509 280.185C104.456 285.131 108.816 302.194 111.258 314.43C111.869 317.494 112.766 320 113.252 320C114.176 320 114.391 319.244 116.145 309.828C117.649 301.757 122.468 284.891 125.382 277.502C130.087 265.574 138.416 255.37 146.505 251.623C149.125 250.408 151.634 248.84 152.08 248.137C153.306 246.204 153 240.098 151.175 230.044L149.529 220.979L142.748 216.766C139.018 214.449 133.787 211.232 131.123 209.617C128.459 208.002 123.476 204.932 120.049 202.794C116.623 200.656 113.565 198.907 113.254 198.907C112.943 198.907 111.169 199.725 109.312 200.726Z" fill="#FF9900"/>
</svg>
