<svg width="210" height="320" viewBox="0 0 210 320" fill="none" xmlns="http://www.w3.org/2000/svg">
<path fill-rule="evenodd" clip-rule="evenodd" d="M114.956 18.1228L104.585 0L94.2143 18.1228H73.4723L83.8433 36.2456L73.4723 54.3685H94.2143L104.585 72.4913L114.956 54.3685H135.698L125.327 36.2456L135.698 18.1228H114.956ZM0 46.9864V103.518V246.414L55.8853 214.437V139.332L61.0574 142.646L105.165 170.912L149.274 142.646L153.285 140.075V212.831L209.171 244.807V104.262V47.7299L153.285 83.5432L105.165 114.38L55.8853 82.7997L0 46.9864ZM7.30469 265.131L56.7452 235.851L103.619 262.555L150.441 235.881L199.881 265.161L154.038 291.277L103.619 320L53.2005 291.277L7.30469 265.131Z" fill="#FFF621"/>
</svg>
