<svg width="393" height="320" viewBox="0 0 393 320" fill="none" xmlns="http://www.w3.org/2000/svg">
<path fill-rule="evenodd" clip-rule="evenodd" d="M143.83 22.6338C141.957 23.2023 135.893 24.8726 130.355 26.3456L120.284 29.0236V97.2471V165.471L122.695 164.995C124.021 164.733 131.362 163.479 139.007 162.208C146.652 160.938 153.514 159.766 154.255 159.604L155.602 159.31L155.211 194.658L154.819 230.005L161.239 234.604C164.77 237.134 169.728 240.639 172.255 242.393L176.852 245.584L177.211 236.376C177.409 231.312 177.741 221.464 177.95 214.493C178.314 202.323 178.377 201.798 179.519 201.353C180.174 201.097 183.901 200.594 187.801 200.235C199.32 199.174 213.056 196.782 220.993 194.457C228.613 192.224 240.724 185.49 247.66 179.63C257.93 170.952 264.383 161.282 268.186 148.87C269.661 144.057 269.749 143.16 269.72 133.268C269.686 122.166 268.721 115.497 265.995 107.524C258.261 84.8999 237.678 71.9995 209.306 71.9926C202.647 71.9909 200.28 72.2661 192.001 74.0029C186.727 75.1098 173.858 77.798 163.404 79.9773C152.95 82.1566 143.95 84.0772 143.404 84.2446C142.471 84.5311 142.411 83.2863 142.411 63.5183C142.411 51.9512 142.603 42.4863 142.837 42.4851C143.071 42.4834 166.624 37.7748 195.177 32.0216L247.092 21.5603L197.163 21.5802C150.526 21.5995 147.009 21.6687 143.83 22.6338ZM221.56 92.1141C236.821 96.3166 245.544 105.227 248.519 119.651C250.465 129.089 249.703 142.138 246.743 150.05C246.115 151.729 244.277 154.949 242.659 157.205C232.926 170.773 212.322 179.085 185.674 180.196L177.589 180.533V166.061V151.588L182.837 150.84C185.723 150.428 193.447 149.306 200 148.346L211.915 146.601L212.071 137.651L212.228 128.7L210.937 128.991C210.226 129.151 203.645 130.296 196.312 131.535C164.785 136.864 152.066 139.038 147.881 139.816C145.428 140.271 143.321 140.643 143.2 140.643C143.078 140.643 142.979 131.835 142.979 121.069C142.979 110.303 143.114 101.494 143.28 101.494C143.446 101.494 149.127 100.23 155.904 98.6843C178.497 93.5325 189.41 91.5013 200 90.4772C205.834 89.9132 216.511 90.724 221.56 92.1141Z" fill="#C5A12D"/>
<path fill-rule="evenodd" clip-rule="evenodd" d="M65.7381 11.0638V22.1277H33.4311C8.20161 22.1277 1.02656 22.2831 0.678763 22.8369C-0.0951375 24.0681 -0.261373 54.1265 0.463166 61.8014C4.77976 107.543 22.424 136.227 52.5142 146.417C55.0703 147.283 58.6447 148.285 60.4575 148.645C62.2697 149.004 64.1642 149.414 64.6674 149.556C65.3891 149.759 65.6439 150.86 65.8731 154.765C66.2203 160.683 68.0166 166.425 72.0121 174.387C74.8813 180.106 81.1798 189.698 85.9253 195.577C89.9258 200.533 100.962 212.672 104.402 215.901C111.726 222.776 119.897 229.978 126.875 235.71C131.01 239.108 134.329 241.952 134.25 242.03C134.172 242.107 132.096 242.969 129.638 243.945C102.555 254.697 83.4924 271.443 76.1585 290.928C74.8927 294.291 74.8161 295.219 74.8161 307.247V320H196.235H317.653V307.764V295.529L315.728 291.361C306.752 271.934 287.783 255.57 262.785 245.689L258.13 243.849L266.757 236.876C303.618 207.083 324.909 177.852 326.545 154.793C326.821 150.911 327.1 149.754 327.808 149.554C328.308 149.413 330.199 149.004 332.012 148.645C333.824 148.285 337.399 147.283 339.955 146.417C370.046 136.226 387.69 107.532 392.01 61.7572C392.733 54.0993 392.557 24.0879 391.781 22.8335C391.441 22.2837 384.194 22.1277 359.038 22.1277H326.731V11.0638V0H196.235H65.7381V11.0638ZM304.603 88.7348C304.603 164.945 305.105 157.553 299.145 169.083C290.08 186.616 270.123 207.194 240.903 229.138C230.704 236.797 212.64 249.068 202.089 255.505L196.879 258.683L183.365 249.706C154.271 230.377 134.922 215.105 117.887 198.025C102.916 183.014 92.4978 168.747 88.9256 158.364C87.9145 155.424 87.8657 152.235 87.8657 88.7053V22.1277H196.235H304.603V88.7348ZM65.7381 85.9575C65.7381 109.206 65.6501 128.227 65.5434 128.227C65.4362 128.227 63.9032 127.73 62.1369 127.122C50.5749 123.144 39.6983 113.888 32.8915 102.232C25.4084 89.4196 21.746 74.5515 21.0924 54.3262L20.748 43.6879H43.2433H65.7381V85.9575ZM371.377 54.3262C370.723 74.5515 367.061 89.4196 359.578 102.232C352.771 113.888 341.894 123.144 330.332 127.122C328.566 127.73 327.033 128.227 326.926 128.227C326.819 128.227 326.731 109.206 326.731 85.9575V43.6879H349.226H371.721L371.377 54.3262ZM162.792 262.448C169.44 267.025 184.503 276.737 192.928 281.879L196.715 284.189L206.545 278.383C211.953 275.189 221.088 269.535 226.847 265.818L237.317 259.06L245.286 261.776C260.565 266.982 275.647 275.228 284.292 283.102C287.996 286.475 293.823 294.321 293.823 295.934C293.823 296.624 280.027 296.738 196.169 296.738H98.5154L99.5236 295.177C106.237 284.787 118.89 273.944 132.751 266.704C139.133 263.371 153.03 257.651 154.848 257.609C155.335 257.598 158.909 259.775 162.792 262.448Z" fill="white"/>
</svg>
