<svg width="350" height="320" viewBox="0 0 350 320" fill="none" xmlns="http://www.w3.org/2000/svg">
<path d="M32.4839 0C32.4839 0 73.1179 34.6134 134.244 34.6134C195.369 34.6134 247.996 35.4265 247.996 35.4265C247.996 35.4265 344.632 35.4265 348.94 135.666C353.248 235.906 242.407 238.461 242.407 238.461H187.685V320C187.685 320 106.184 320 105.951 320C105.835 320 105.951 299.673 106.184 298.163C106.883 292.82 108.629 287.477 112.122 283.18C114.916 279.695 124.347 274.933 122.018 283.412C117.128 296.653 132.381 307.339 132.381 307.339C132.381 307.339 125.511 281.089 148.564 279.347C168.241 277.372 170.803 288.987 170.803 288.987C171.618 292.588 171.152 297.002 171.152 297.002C171.152 297.002 177.672 292.123 177.905 285.851C178.254 280.857 175.925 275.746 171.85 272.726C164.748 267.499 154.852 269.474 146.003 269.822C126.326 270.751 108.629 259.717 110.608 238.229C110.608 238.229 112.937 213.024 128.189 201.757C128.189 201.757 47.8527 231.376 47.7362 231.376C49.3662 230.795 51.2291 228.123 52.5098 227.078C57.0506 223.245 61.8242 219.528 66.7143 216.044C82.7816 204.428 100.363 194.439 118.642 186.889C133.079 180.849 148.215 176.319 163.584 173.532C171.967 172.022 180.466 171.093 188.966 170.744C192.458 170.628 198.629 169.35 201.889 170.628C204.451 171.557 205.499 174.693 207.711 176.319C214.58 181.546 224.477 177.946 231.928 176.203C239.03 174.461 246.365 173.88 253.701 174.345C260.803 174.809 267.672 177.249 274.658 177.365C279.548 177.365 282.692 175.623 286.417 172.835C288.979 174.229 290.26 177.132 290.492 180.036C290.725 182.824 289.794 188.051 289.794 188.051C289.794 188.051 302.485 179.804 299.807 166.33C298.875 157.735 293.752 149.837 286.883 144.494C278.966 138.338 270.117 137.292 261.036 134.04C254.516 117.546 239.147 102.911 221.333 100.007C193.39 95.1289 79.9873 92.1089 32.4839 0ZM56.9342 96.8711C107.814 114.41 158.694 106.628 158.694 106.628C66.7143 93.3866 0 34.9619 0 34.9619C0 34.9619 6.05435 79.3321 56.9342 96.8711ZM190.828 134.853C142.51 121.612 107.465 134.853 107.465 134.853C107.465 134.853 10.4787 178.991 3.49289 182.243C94.7739 146.933 190.828 134.853 190.828 134.853Z" fill="#FF0000"/>
</svg>
