<svg width="1846" height="365" viewBox="0 0 1846 365" fill="none" xmlns="http://www.w3.org/2000/svg">
<g filter="url(#filter0_d_114_2)">
<path fill-rule="evenodd" clip-rule="evenodd" d="M33.5061 31.5072C31.5007 33.5112 31.4984 128.771 33.4967 217.514L35.046 286.311H78.991H122.938L124.457 268.316C125.294 258.418 125.978 239.48 125.978 226.231C125.978 206.433 126.641 201.887 129.697 200.713C135.07 198.651 166.599 199.024 170.008 201.193C171.597 202.202 182.492 220.445 194.218 241.731C205.945 263.014 217.279 281.755 219.405 283.371C222.179 285.481 235.74 286.311 267.488 286.311C309.246 286.311 311.708 286.064 311.708 281.878C311.708 279.438 304.996 265.413 296.79 250.713C263.404 190.886 265.68 198.484 278.721 190.371C285.043 186.439 293.201 178.715 296.847 173.206C303.479 163.189 303.479 163.189 304.189 115.969C304.878 70.2877 304.72 68.4084 299.395 58.3488C296.37 52.6286 289.879 44.6998 284.972 40.7272C276.052 33.5041 276.052 33.5041 225.113 31.9165C157.261 29.802 35.4692 29.5409 33.5061 31.5072ZM392.23 31.5049C389.319 32.1164 386.94 33.0408 386.94 33.5606C386.94 34.078 374.705 89.6874 359.75 157.135C344.796 224.582 333.125 281.238 333.814 283.039C334.811 285.638 342.456 286.304 370.998 286.278C390.755 286.262 409.166 285.646 411.907 284.909C415.883 283.842 417.726 280.022 421.015 266.053C426.383 243.257 428.757 241.622 456.532 241.622C481.079 241.622 479.527 240.239 486.632 268.454C488.557 276.096 491.51 283.225 493.196 284.293C494.882 285.363 516.099 286.255 540.343 286.276C584.424 286.311 584.424 286.311 584.424 280.382C584.424 266.61 538.392 37.0416 534.936 33.5817C532.455 31.098 403.122 29.2163 392.23 31.5049ZM622.875 31.5402C610.379 32.3728 608.24 33.2031 607.039 37.6884C605.174 44.6434 605.224 135.874 607.137 218.895L608.691 286.311H654.964H701.236L702.694 242.495C703.493 218.396 704.575 198.253 705.094 197.731C705.614 197.211 733.955 196.026 768.073 195.097C829.763 193.415 830.163 193.37 840.848 187.086C853.189 179.829 863.686 165.981 866.702 152.988C867.847 148.051 868.785 128.665 868.788 109.908C868.792 80.6226 868.115 74.3074 864.003 65.2191C858.065 52.0947 849.394 42.7594 837.157 36.3148C828.085 31.5378 824.398 31.3496 732.538 30.971C680.169 30.7569 630.821 31.0133 622.875 31.5402ZM906.305 31.4861C902.988 32.3775 902.402 44.6528 901.084 141.018C899.838 231.977 899.038 250.109 896.139 253.006C894.237 254.909 884.951 257.623 875.5 259.039L858.316 261.615L857.665 296.307L857.016 331H907.718C952.834 331 959.384 330.508 967.144 326.545C971.94 324.097 977.818 319.934 980.204 317.295C990.633 305.756 990.937 301.475 991.045 163.77L991.148 32.9937L969.627 31.4672C946.59 29.8302 912.432 29.842 906.305 31.4861ZM1030.53 31.559C1026.69 32.5633 1026.41 39.3442 1026.41 131.998C1026.41 248.504 1026.5 249.118 1046 268.511C1053.68 276.141 1061.72 281.645 1067.83 283.451C1080.43 287.174 1218.61 287.426 1231.85 283.75C1243.52 280.506 1262.09 263.188 1269.06 249.036C1274.39 238.21 1274.45 237.015 1275.15 135.265C1275.85 32.4386 1275.85 32.4386 1269.5 30.844C1262.96 29.1999 1183.77 31.6672 1181.87 33.5723C1181.28 34.158 1180.42 67.7146 1179.96 108.142C1179.49 148.568 1178.52 188.278 1177.8 196.383C1176.63 209.635 1175.81 211.476 1169.75 214.611C1159.75 219.784 1136.44 219.203 1129.53 213.609C1124.57 209.59 1123.82 206.551 1122.47 184.797C1121.63 171.421 1120.84 131.794 1120.7 96.7388L1120.45 33.0008L1097.53 31.4814C1072.45 29.8185 1037.03 29.8608 1030.53 31.559ZM1303.24 31.6225C1299.66 32.1658 1296.78 34.1039 1296.78 35.9644C1296.78 42.543 1340.37 232.835 1351.04 272.82C1353.4 281.673 1353.4 281.673 1429.02 281.052C1504.64 280.431 1504.64 280.431 1507.76 269.847C1513.33 250.948 1557.19 76.4313 1561.96 54.1927C1565.96 35.5245 1566.12 32.401 1563.15 31.2603C1558.67 29.5386 1482.84 29.5997 1476.4 31.3285C1472.17 32.4645 1469.19 40.8002 1455.62 89.5086C1440.07 145.32 1435.13 158.456 1430.72 155.735C1427.64 153.825 1418.69 122.988 1407.18 74.6272C1401.79 51.9888 1396.17 32.688 1394.69 31.7377C1391.92 29.9643 1314.84 29.8655 1303.24 31.6225ZM1599.47 31.6672L1588.3 32.5492V159.43V286.311H1701.15H1814V253.752V221.192L1750.27 219.788C1715.22 219.015 1685.98 217.82 1685.29 217.133C1683.68 215.519 1683.15 188.309 1684.69 186.77C1685.34 186.131 1712.06 184.832 1744.06 183.887L1802.25 182.167V153.428C1802.25 124.69 1802.25 124.69 1787.79 123.178C1779.85 122.348 1753.53 121.668 1729.31 121.668C1685.28 121.668 1685.28 121.668 1683.87 114.612C1683.1 110.731 1683.07 104.538 1683.8 100.85C1685.14 94.1421 1685.14 94.1421 1713.5 92.618C1729.1 91.7783 1758.09 91.0916 1777.93 91.0916H1814V62.0673V33.0455L1753.67 31.4908C1693.19 29.9337 1620.38 30.0184 1599.47 31.6672ZM219.927 98.5922C226.075 105.192 226.644 124.197 220.839 129.025C217.921 131.45 205.661 132.443 171.468 133.019L125.978 133.788V113.615V93.4436H170.556C213.386 93.4436 215.321 93.6459 219.927 98.5922ZM782.236 97.9407C789.46 103.793 790.064 121.007 783.308 128.477C779.048 133.186 776.6 133.428 733.349 133.428H687.868V113.436V93.4436H732.277C772.498 93.4436 777.209 93.867 782.236 97.9407ZM464.391 137.361C467.05 152.95 469.225 169.556 469.225 174.262C469.225 182.821 469.225 182.821 456.294 182.821C443.489 182.821 443.364 182.753 443.364 175.749C443.364 166.467 449.89 123.051 453.069 111.185C456.52 98.3053 458.521 102.932 464.391 137.361Z" fill="url(#paint0_linear_114_2)"/>
</g>
<defs>
<filter id="filter0_d_114_2" x="0" y="0" width="1846" height="365" filterUnits="userSpaceOnUse" color-interpolation-filters="sRGB">
<feFlood flood-opacity="0" result="BackgroundImageFix"/>
<feColorMatrix in="SourceAlpha" type="matrix" values="0 0 0 0 0 0 0 0 0 0 0 0 0 0 0 0 0 0 127 0" result="hardAlpha"/>
<feOffset dy="2"/>
<feGaussianBlur stdDeviation="16"/>
<feComposite in2="hardAlpha" operator="out"/>
<feColorMatrix type="matrix" values="0 0 0 0 1 0 0 0 0 1 0 0 0 0 1 0 0 0 0.55 0"/>
<feBlend mode="normal" in2="BackgroundImageFix" result="effect1_dropShadow_114_2"/>
<feBlend mode="normal" in="SourceGraphic" in2="effect1_dropShadow_114_2" result="shape"/>
</filter>
<linearGradient id="paint0_linear_114_2" x1="923" y1="30" x2="923" y2="331" gradientUnits="userSpaceOnUse">
<stop offset="0.190625" stop-color="#DC40E1"/>
<stop offset="0.7375" stop-color="#80D3F6"/>
</linearGradient>
</defs>
</svg>
